<?xml version="1.0" encoding="utf-8"?>
<!-- Generator: Adobe Illustrator 21.1.0, SVG Export Plug-In . SVG Version: 6.00 Build 0)  -->
<svg version="1.1" id="Layer_1" xmlns="http://www.w3.org/2000/svg" xmlns:xlink="http://www.w3.org/1999/xlink" x="0px" y="0px"
	 viewBox="0 0 54 54" style="enable-background:new 0 0 54 54;" xml:space="preserve">
<style type="text/css">
	.st0{fill:#FAFAFA;}
	.st1{filter:url(#filter-3);}
	.st2{fill:url(#path-2_2_);}
	.st3{enable-background:new    ;}
	.st4{fill:#FFFFFF;}
	.st5{font-family:'Raleway-Bold';}
	.st6{font-size:14px;}
</style>
<filter  filterUnits="objectBoundingBox" height="130.4%" id="filter-3" width="130.4%" x="-15.2%" y="-10.9%">
	<feOffset  dx="0" dy="2" in="SourceAlpha" result="shadowOffsetOuter1"></feOffset>
	<feGaussianBlur  in="shadowOffsetOuter1" result="shadowBlurOuter1" stdDeviation="2"></feGaussianBlur>
	
		<feColorMatrix  in="shadowBlurOuter1" type="matrix" values="0 0 0 0 0.317647059   0 0 0 0 0.863859362   0 0 0 0 0.925490196  0 0 0 0.5 0">
		</feColorMatrix>
</filter>
<title>Group 2</title>
<desc>Created with Sketch.</desc>
<g id="Page-1">
	<g id="Mobile-Copy" transform="translate(-19.000000, -15.000000)">
		<rect class="st0" width="320" height="1024"/>
		<g id="Group-2" transform="translate(23.000000, 17.000000)">
			<g id="Oval-2">
				<g class="st1">
					<circle id="path-2_2_" cx="23" cy="23" r="23"/>
				</g>
				<g>
					
						<linearGradient id="path-2_2_" gradientUnits="userSpaceOnUse" x1="-759.625" y1="514.5883" x2="-758.2555" y2="515.5704" gradientTransform="matrix(46 0 0 -46 34924 23724)">
						<stop  offset="0" style="stop-color:#3023AE"/>
						<stop  offset="0.4752" style="stop-color:#53A0FD"/>
						<stop  offset="1" style="stop-color:#B4EC51"/>
					</linearGradient>
					<circle id="path-2_1_" class="st2" cx="23" cy="23" r="23"/>
				</g>
			</g>
			<g class="st3">
				<path class="st4" d="M13,23v-9.9h6.7v1.7H15v2.6h3.9v1.6H15V23H13z"/>
				<path class="st4" d="M21.1,23v-9.9h3.6c0.8,0,1.5,0.1,2.1,0.4s1.1,0.6,1.5,1.1c0.4,0.4,0.7,1,0.9,1.6c0.2,0.6,0.3,1.2,0.3,1.9
					c0,0.8-0.1,1.4-0.3,2.1s-0.6,1.1-1,1.6c-0.4,0.4-0.9,0.8-1.5,1c-0.6,0.2-1.3,0.4-2,0.4H21.1z M27.6,18c0-0.5-0.1-0.9-0.2-1.3
					s-0.3-0.7-0.6-1s-0.6-0.5-0.9-0.7c-0.4-0.2-0.8-0.2-1.3-0.2H23v6.6h1.7c0.5,0,0.9-0.1,1.3-0.3c0.4-0.2,0.7-0.4,0.9-0.7
					c0.2-0.3,0.4-0.6,0.6-1S27.6,18.5,27.6,18z"/>
			</g>
			<text transform="matrix(1 0 0 1 30.0597 32)" class="st4 st5 st6"> </text>
			<g class="st3">
				<path class="st4" d="M21.1,35v-6.6l-2.6,4.9h-1.1L15,28.4V35H13v-9.9h2.1l2.9,5.7l3-5.7h2.1V35H21.1z"/>
				<path class="st4" d="M25.1,35v-9.9h3.6c0.8,0,1.5,0.1,2.1,0.4s1.1,0.6,1.5,1.1c0.4,0.4,0.7,1,0.9,1.6c0.2,0.6,0.3,1.2,0.3,1.9
					c0,0.8-0.1,1.4-0.3,2.1s-0.6,1.1-1,1.6c-0.4,0.4-0.9,0.8-1.5,1c-0.6,0.2-1.3,0.4-2,0.4H25.1z M31.7,30c0-0.5-0.1-0.9-0.2-1.3
					s-0.3-0.7-0.6-1S30.4,27.2,30,27c-0.4-0.2-0.8-0.2-1.3-0.2h-1.7v6.6h1.7c0.5,0,0.9-0.1,1.3-0.3c0.4-0.2,0.7-0.4,0.9-0.7
					c0.2-0.3,0.4-0.6,0.6-1S31.7,30.5,31.7,30z"/>
			</g>
		</g>
	</g>
</g>
</svg>
